<?xml version="1.0" encoding="UTF-8"?><svg id="Layer_2" xmlns="http://www.w3.org/2000/svg" viewBox="0 0 129.2 189.56"><g id="Layer_3"><g><g><path d="M53.27,70.68v20.09c-9.74,2.3-16.87,10.52-16.87,19.37,0,4.57,1.9,8.72,5.08,11.79H0v-43.95l53.27-7.3Z" style="fill:#0dadea;"/><polygon points="53.27 158.72 53.27 179.23 0 171.76 0 128.1 43.24 128.3 43.24 157.59 53.27 158.72" style="fill:#0dadea;"/><path d="M129.16,60.18v61.75h-58.54c4.38-3.65,7.2-8.84,7.2-14.58,0-10.12-8.75-17.34-19.39-17.22v-20.38l70.73-9.57Z" style="fill:#0dadea;"/><polygon points="129.2 128.35 129.2 189.56 58.43 179.92 58.43 159.31 68.66 160.46 68.66 128.14 129.2 128.35" style="fill:#0dadea;"/></g><path d="M110.71,50.97C106.99,8.11,78.57-10.83,51.15,6.24,32.31,17.95,19.1,43.88,15.77,70.68l16.48-2.34c.36-2.77,.87-5.54,1.53-8.25,3.69-17.26,10.85-34.46,23.17-42.13,17.97-11.18,36.59,1.22,39.04,29.31,.11,1.36,.29,2.78,.33,4.15,0,0,.2,2.52,.32,3.87,.11,1.31,.17,2.61,.21,3.9l14.19-2.01c-.05-2.06-.15-4.14-.33-6.21Z" style="fill:#0dadea;"/></g></g></svg>